<?xml version="1.0" encoding="utf-8"?>
<!-- Generator: Adobe Illustrator 22.0.0, SVG Export Plug-In . SVG Version: 6.00 Build 0)  -->
<svg version="1.1" id="Layer_1" xmlns="http://www.w3.org/2000/svg" xmlns:xlink="http://www.w3.org/1999/xlink" x="0px" y="0px"
	 viewBox="0 0 102.2 215.4" style="enable-background:new 0 0 102.2 215.4;" xml:space="preserve">
<g>
	<path d="M85.6,195v5.7h6.7c-0.8,2.8-2.8,4.2-6.3,4.2c-2.2,0-4-0.7-5.4-2.2c-1.4-1.5-2.1-3.4-2.1-5.6c0-2.3,0.7-4.1,2.1-5.6
		c1.4-1.5,3.2-2.2,5.4-2.2c0.8,0,1.5,0.1,2.2,0.3c0.7,0.2,1.3,0.4,1.7,0.7c0.4,0.3,0.8,0.6,1.2,0.9c0.4,0.3,0.6,0.6,0.7,0.7
		c0.1,0.1,0.2,0.2,0.2,0.3l5.6-5.6l-0.4-0.5c-0.3-0.3-0.7-0.7-1.3-1.2c-0.6-0.5-1.4-0.9-2.2-1.4c-0.9-0.5-2-0.9-3.3-1.2
		c-1.3-0.3-2.8-0.5-4.3-0.5c-4.4,0-8.1,1.5-11.1,4.4c-3,3-4.5,6.6-4.5,10.8c0,4.3,1.5,7.8,4.4,10.7c2.9,2.9,6.6,4.3,11,4.3
		c4.4,0,7.9-1.4,10.6-4.2c2.7-2.8,4-6.4,4-10.6c0-0.7-0.1-1.4-0.2-2.2H85.6z M48,207.4h4.2l6-11.8v16h7.7v-29.4h-7.8l-7.8,15.4
		l-7.8-15.4h-8.2v29.4H42v-16L48,207.4z M24.9,201.5l-0.3,0.3c-0.1,0.2-0.4,0.5-0.7,0.8c-0.3,0.3-0.7,0.6-1.2,0.9
		c-0.4,0.3-1,0.6-1.8,0.8c-0.7,0.2-1.5,0.3-2.3,0.3c-2.2,0-4-0.7-5.4-2.2c-1.4-1.5-2.1-3.3-2.1-5.5c0-2.2,0.7-4.1,2.1-5.5
		c1.4-1.5,3.2-2.2,5.4-2.2c0.8,0,1.5,0.1,2.2,0.3c0.7,0.2,1.2,0.4,1.6,0.6c0.4,0.2,0.8,0.5,1.1,0.8c0.3,0.3,0.5,0.5,0.6,0.6
		c0.1,0.1,0.2,0.2,0.2,0.3l5.9-5.1l-0.4-0.5c-0.3-0.3-0.7-0.8-1.3-1.2c-0.6-0.5-1.4-1-2.2-1.4c-0.9-0.5-2-0.9-3.3-1.2
		c-1.3-0.3-2.8-0.5-4.3-0.5c-4.4,0-8.1,1.5-11.1,4.4c-3,3-4.5,6.6-4.5,10.8c0,4.3,1.5,7.8,4.4,10.7c2.9,2.9,6.6,4.3,11,4.3
		c1.6,0,3.1-0.2,4.5-0.6s2.5-0.8,3.4-1.3c0.9-0.5,1.6-1,2.4-1.7c0.7-0.6,1.2-1.1,1.4-1.3c0.2-0.3,0.3-0.4,0.4-0.6L24.9,201.5z"/>
	<g>
		<g>
			<path d="M72.5,80.9c-1,1.3-2.1,2.7-3.2,4.2c-0.9,1.2-1.5,2-2.4,3l-0.1,0.1c-5.2,6.6-8.1,10.3-11.7,12.2c-1.5,0.8-4.2,2.2-7.6,2.2
				c-0.8,0-1.6-0.1-2.4-0.3c-4.7-1-7.4-4.6-8.9-6.6c-1.9-2.5-3.4-4.9-4.7-7.3l-0.1-0.1c-0.3-0.5-0.6-1.1-0.9-1.8
				c-0.6-1.2-1.4-2.8-2.2-4.7c-0.9-1.9-1.8-3.8-2.7-5.8l-3.1,3.1c-4.9,5-11.7,11.8-12.7,12.8c-0.2,0.2-16.1,16.5-2.9,37.7
				c0,0.1,6,7.7,7.4,15.5l1.1-5.3c0-0.2,0.4-2.3,1.7-2.6c0.7-0.2,1.6,0.3,2.5,1.5c0.2,0.3,0.5,0.7,0.8,1.1c3.1,4,8.9,11.4,9,28.2
				h20.3l3.1-23.4c0-0.3,4.3-23.9-12-30l-2.4-0.9l2.6,0.4c0.1,0,2.8,0.4,5.8,1.9c3.5,1.7,5.9,4.1,6.9,7.1
				c0.7-2.9,3.2-10.7,12.4-15.1l0.2-0.1l0.1,0.1c0.1,0.1,7.6,7.5,11,20.3l18.3-7.1L74.1,78.9C73.6,79.5,73.1,80.2,72.5,80.9z"/>
			<path d="M55.5,142.6l-2.8,23.1l16.5-5.5C68.4,158.5,63.6,149.2,55.5,142.6z"/>
			<path d="M91.7,107.9l3.4,0.8l4.2-18.1c-1.3-0.6-8.7-3.6-18.2-4.5C82.1,88.3,87.8,100,91.7,107.9z"/>
			<path d="M34.4,87.7L34.4,87.7l0.1,0.1c1.2,2.3,2.7,4.5,4.4,6.8c1.8,2.3,3.7,4.7,6.9,5.4c3.4,0.7,6.3-0.8,7.8-1.7
				c2.8-1.5,5.3-4.5,10.6-11.3l0.1-0.1c0.9-1.1,1.5-1.9,2.3-3c1.1-1.5,2.2-2.9,3.3-4.2c4.2-5.3,7.2-9.2,5.2-10.8
				c-1.1-0.9-2.6-0.9-4.6-0.8c-1.6,0-3.6,0.1-6-0.4c-5.7-1.2-8.4-4.2-8.8-5.4c-0.1-0.4,0-0.6,0.1-0.7c0.3-0.3,0.8,0,1.5,0.5
				c1.4,1,4,2.9,9,3.3c1.8,0.1,3,0,4.2-0.1c1.8-0.2,3.1-0.3,5.3,0.8c0.8,0.4,1.1,0.8,1.5,1.3c0.1,0.1,0.1,0.2,0.2,0.2
				c7.6-10.4,11.2-24.1,9.5-35.8C85.5,22,82,8.5,68.5,3.4c-1,0.4-2.8,2.2-3.2,3.5c-0.1,0.2-0.2,0.5-0.1,0.8
				c6.7,2.2,11.1,7.2,12,13.6c0.7,4.7-0.6,9.4-3.5,13.1c-2.7,3.4-6.4,5.5-10.6,5.8c-1.9,0.2-3.8-0.2-5.4-0.6
				c-1.2-0.3-2.4-0.5-3.4-0.5c-1.7,0.4-3.1,0.8-5.2,2.5c-1,0.8-1.6,1.5-2.1,2.3c-0.5,0.6-0.9,1.2-1.7,1.9c0.6,0.1,1.6,0.4,2.7,0.7
				c1.1,0.3,2.2,0.6,2.8,0.7c1.2,0.2,2.5,0.3,2.5,0.3l0.3,0v0.3c0,0.1,0,0.3-0.3,0.6c-0.4,0.4-1,0.6-2,0.5c-1.2,0-3.7-0.2-5.9-0.4
				c-1.4-0.1-2.7-0.2-3.3-0.2l-0.1,0c-4.4-0.2-8,1-10.3,2.1c-3.9,2.2-5.9,5.8-7.7,8.9c-0.4,0.7-0.8,1.4-1.2,2.1
				c0.9,2.8,1.9,5.8,2.4,6.8C29.1,76.8,33.7,86.5,34.4,87.7z"/>
		</g>
	</g>
</g>
</svg>
