<svg xmlns="http://www.w3.org/2000/svg" viewBox="0 0 230.3 339.77"><defs><style>.a{fill:#fff;}</style></defs><title>Untitled-1</title><path class="a" d="M110.4,72.3c40.1,5.6,37.8,20,27.2,51s-65.3,47.2-98.3-16.2,63.8-72.5,63.8-72.5S95.5,31.2,77.6,33c0,0,15.1-23.3,36.3-26.3s27.8,8.4,48.7-14.5-3.1-54.9-28-37.7L127.2-54s21.8-22.2,49.1,0,1.8,76.5,1.8,76.5L153.9,36a9.53,9.53,0,0,0-3.8,12.9h0a9.61,9.61,0,0,0,12.4,4.2l6.6-3s-22,79,46.3,116.8l-13,26s-124.5-41-164.2,83H3.8V217.6s-4.7,8.3-18.7,7.2c0,0,16-11.2,17.7-26.7S-2.5,157.3,37,118.8c0,0,22.2,42.8,60.7,42.3s48.8-37.5,48.8-37.5S172.2,60.6,110.4,72.3Z" transform="translate(14.9 63.87)"/><path class="a" d="M154.4,46.2h0a5.85,5.85,0,0,0,8,3.1c6.6-3.3,19-12.4,39.4-37.5,0,0-30.4,20.2-44.5,26.9A5.85,5.85,0,0,0,154.4,46.2Z" transform="translate(14.9 63.87)"/><path class="a" d="M51.2,275.9c5-22.3,20.3-44.2,20.3-44.2s3.3,41.8,7.7,44.2Z" transform="translate(14.9 63.87)"/><path class="a" d="M184.5,199.1c-24.2-5.8-49.3-1.5-49.3-1.5s11.2,16,25.3,19.7Z" transform="translate(14.9 63.87)"/></svg>