<svg xmlns="http://www.w3.org/2000/svg" viewBox="0 0 502.74 250.82"><defs><style>.a{fill:#fff;}</style></defs><title>CMG Logo (Martin)</title><path class="a" d="M687.32,185.8H184.59v24.25h0V412.37h0v24.25H687.33V185.8ZM663.08,412.37H208.84V210.05H663.08Z" transform="translate(-184.59 -185.8)"/><path class="a" d="M315.77,369.81c32.35,0,46-20.92,46-20.92l-21.73-19.31s-7.24,12.07-23.82,12.07c-16.89,0-29-12.88-29-29.77s12.07-29.78,29-29.78c15.62,0,22.05,10.3,22.05,10.3L361,272.77s-13.19-18.83-44.25-18.83c-34,0-60,25.91-60,58.42S281.82,369.81,315.77,369.81Z" transform="translate(-184.59 -185.8)"/><polygon class="a" points="213.57 121.09 236.43 166.31 252.52 166.31 275.37 121.09 275.37 182.4 304.82 182.4 304.82 69.75 275.05 69.75 245.28 128.65 215.51 69.75 184.13 69.75 184.13 182.4 213.57 182.4 213.57 121.09"/><path class="a" d="M558.62,369.81c34.27,0,56-25.27,56-56.81a66.88,66.88,0,0,0-.64-8.37H557.49v21.73h25.59c-2.74,10.3-11.27,16.09-24,16.09-16.9,0-29-12.87-29-30.25s12.07-30.1,29-30.1a28.48,28.48,0,0,1,23.34,11.43L603.84,272s-13.2-18-44.26-18c-34,0-60,25.91-60,58.42S524.66,369.81,558.62,369.81Z" transform="translate(-184.59 -185.8)"/></svg>